<svg class="index-module--Icon--1u3hW" fill="#ffffff" height="16" preserveAspectRatio="xMidYMid meet" stroke="currentcolor" stroke-linecap="round" stroke-linejoin="round" stroke-width="0" vector-effect="non-scaling-stroke" viewBox="0 0 16 16" width="16" xmlns="http://www.w3.org/2000/svg"><g><path d="M3.33,5.98v6c0,0.37-0.3,0.67-0.67,0.67H0V5.31h2.67C3.03,5.31,3.33,5.61,3.33,5.98z M13.91,6.75 L13.5,5.73c-0.1-0.25-0.35-0.42-0.62-0.42H8.81c-0.23,0-0.39-0.23-0.31-0.45l0.7-1.88c0.08-0.22,0.13-0.46,0.13-0.7v-1.3 c0-0.46-0.31-0.85-0.74-0.97C8.56,0,8.54,0,8.51,0C8.39,0,8.28,0.06,8.22,0.16L6.74,2.52C6.69,2.6,6.64,2.68,6.58,2.76L4.67,5.31 v6.33l0.61,0.61c0.25,0.25,0.59,0.39,0.94,0.39h4.88c0.55,0,1.04-0.33,1.24-0.84l1.58-4.59C13.97,7.06,13.97,6.9,13.91,6.75z"></path></g></svg>