<svg class="index-module--Icon--1u3hW" fill="#ffffff" height="16" preserveAspectRatio="xMidYMid meet" stroke="currentcolor" stroke-linecap="round" stroke-linejoin="round" stroke-width="0" vector-effect="non-scaling-stroke" viewBox="0 0 16 16" width="16" xmlns="http://www.w3.org/2000/svg"><g><path d="M13.96,0v7.33h-2.67c-0.37,0-0.67-0.3-0.67-0.67v-6c0-0.37,0.3-0.67,0.67-0.67H13.96z M7.74,0H2.86 C2.31,0,1.82,0.33,1.62,0.84L0.04,5.43C-0.02,5.58-0.01,5.75,0.05,5.9l0.41,1.02c0.1,0.25,0.35,0.42,0.62,0.42h4.07 c0.23,0,0.39,0.23,0.31,0.45l-0.7,1.88c-0.08,0.22-0.13,0.46-0.13,0.7v1.3c0,0.46,0.31,0.85,0.74,0.97 c0.03,0.01,0.06,0.01,0.09,0.01c0.11,0,0.22-0.06,0.29-0.16l1.48-2.36c0.05-0.08,0.1-0.16,0.16-0.23l1.92-2.55V1L8.68,0.39 C8.43,0.14,8.09,0,7.74,0z"></path></g></svg>